# AST/ASF file generated using VICON BodyLanguage
# -----------------------------------------------
:version 1.10
:name VICON
:units
  mass 1.0
  length 0.45
  angle deg
:documentation
   .ast/.asf automatically generated from VICON data using
   VICON BodyBuilder and BodyLanguage model FoxedUp or BRILLIANT.MOD
:root
   order TX TY TZ RX RY RZ
   axis XYZ
   position 0 0 0  
   orientation 0 0 0 
:bonedata
  begin
     id 1 
     name lhipjoint
     direction 0.440178 -0.822639 0.359871 
     length 2.53113 
     axis 0 0 0  XYZ
  end
  begin
     id 2 
     name lfemur
     direction 0.34202 -0.939693 0  
     length 7.88132  
     axis 0 0 20  XYZ
    dof rx ry rz
    limits (-160.0 20.0)
           (-70.0 70.0)
           (-60.0 70.0)
  end
  begin
     id 3 
     name ltibia
     direction 0.34202 -0.939693 0   
     length 8.43783   
     axis 0 0 20   XYZ
    dof rx
    limits (-10.0 170.0)
  end
  begin
     id 4 
     name lfoot
     direction 0.0886351 -0.243523 0.965837   
     length 2.63414   
     axis -90 7.62852e-016 20   XYZ
    dof rx rz
    limits (-45.0 90.0)
           (-70.0 20.0)
  end
  begin
     id 5 
     name ltoes
     direction 1.53703e-011 -4.21717e-011 1   
     length 1.31427   
     axis -90 7.62852e-016 20   XYZ
    dof rx
    limits (-90.0 20.0)
  end
  begin
     id 6 
     name rhipjoint
     direction -0.399779 -0.839773 0.367367   
     length 2.47948  
     axis 0 0 0  XYZ 
  end
  begin
     id 7 
     name rfemur
     direction -0.34202 -0.939693 0   
     length 7.74806   
     axis 0 0 -20   XYZ
    dof rx ry rz
    limits (-160.0 20.0)
           (-70.0 70.0)
           (-70.0 60.0)
  end
  begin
     id 8 
     name rtibia
     direction -0.34202 -0.939693 0   
     length 8.74432   
     axis 0 0 -20   XYZ
    dof rx
    limits (-10.0 170.0)
 end
 begin
     id 9 
     name rfoot
     direction -0.108514 -0.298139 0.948334   
     length 2.66102  
     axis -90 -7.62852e-016 -20   XYZ
    dof rx rz
    limits (-45.0 90.0)
           (-20.0 70.0)
  end
  begin
     id 10 
     name rtoes
     direction -1.53392e-011 -4.22077e-011 1   
     length 1.31983   
     axis -90 -7.62852e-016 -20   XYZ
    dof rx
    limits (-90.0 20.0)
  end
  begin
     id 11 
     name lowerback
     direction 0.0113257 0.999866 0.0118602   
     length 2.58694   
     axis 0 0 0   XYZ
    dof rx ry rz
    limits (-20.0 45.0)
           (-30.0 30.0)
           (-30.0 30.0)
  end
  begin
     id 12 
     name upperback
     direction -0.0164747 0.995193 -0.0965375   
     length 2.52368   
     axis 0 0 0   XYZ
    dof rx ry rz
    limits (-20.0 45.0)
           (-30.0 30.0)
           (-30.0 30.0)
  end
  begin
     id 13 
     name thorax
     direction -0.0194301 0.99433 -0.104552   
     length 2.56099   
     axis 0 0 0   XYZ
    dof rx ry rz
    limits (-20.0 45.0)
           (-30.0 30.0)
           (-30.0 30.0)
  end
  begin
     id 14 
     name lowerneck
     direction 0.0148543 0.995587 -0.092657   
     length 1.71582   
     axis 0 0 0   XYZ
    dof rx ry rz
    limits (-20.0 45.0)
           (-30.0 30.0)
           (-30.0 30.0)
  end
  begin
     id 15 
     name upperneck
     direction -0.0135467 0.993656 -0.111639   
     length 1.68937   
     axis 0 0 0   XYZ
    dof rx ry rz
    limits (-20.0 45.0)
           (-30.0 30.0)
           (-30.0 30.0)
  end
  begin
     id 16
     name head
     direction -0.00615349 0.999547 -0.029448  
     length 1.7462  
     axis 0 0 0   XYZ
    dof rx ry rz
    limits (-20.0 45.0)
           (-30.0 30.0)
           (-30.0 30.0)
  end
  begin
     id 17 
     name lclavicle
     direction 0.988267 0.149885 0.0293713  
     length 4.47222  
     axis 0 0 0   XYZ
    dof ry rz
    limits (-20.0 10.0)
           (0.0 20.0)
  end
  begin
     id 18 
     name lhumerus
     direction 1 -4.48986e-011 -1.14833e-027   
     length 5.37148   
     axis 180 -30 -90   XYZ
    dof rx ry rz
    limits (-60.0 90.0)
           (-90.0 90.0)
           (-90.0 90.0)
  end
  begin
     id 19
     name lradius
     direction 0.999998 0.00170963 -0.000987055   
     length 3.94212   
     axis 180 -30 -90   XYZ
    dof rx
    limits (-10.0 170.0)
  end
  begin
     id 20
     name lwrist
     direction 0.999998 7.53149e-005 -0.00194706   
     length 1.97106   
     axis 4.65056e-015 90 90   XYZ
    dof ry
    limits (-180.0 0.0)
 end
  begin
     id 21 
     name lhand
     direction 1 -4.48973e-011 -1.31746e-026   
     length 1.17917   
     axis 8.4065e-015 90 90   XYZ
    dof rx rz
    limits (-90.0 90.0)
           (-45.0 45.0)
  end
  begin
     id 22 
     name lfingers
     direction 1 -4.49107e-011 -2.63492e-026   
     length 0.950679   
     axis 1.6813e-014 90 90   XYZ
    dof rx
    limits (0.0 90.0)
  end
  begin
     id 23
     name lthumb
     direction 0.707107 -6.35048e-011 0.707107   
     length 1.36499   
     axis -90 45 2.85299e-015   XYZ
    dof rx rz
    limits (-45.0 45.0)
           (-45.0 45.0)
  end
  begin
     id 24 
     name rclavicle
     direction -0.996699 0.0642895 -0.0495725   
     length 4.62611  
     axis 0 0 0   XYZ 
    dof ry rz
    limits (-10.0 20.0)
           (-20.0 0.0)
  end
  begin
     id 25 
     name rhumerus
     direction -1 -4.48919e-011 -2.41059e-027  
     length 5.4981   
     axis 180 30 90   XYZ
    dof rx ry rz
    limits (-90.0 60.0)
           (-90.0 90.0)
           (-90.0 90.0)
  end
  begin
     id 26 
     name rradius
     direction -0.999999 0.00118101 -0.000681858   
     length 3.48381   
     axis 180 30 90   XYZ
    dof rx
    limits (-10.0 170.0)
  end
  begin
     id 27 
     name rwrist
     direction -0.999999 0.000321823 -0.00132288   
     length 1.7419   
     axis 4.65056e-015 -90 -90   XYZ
    dof ry
    limits (-180.0 0.0)
  end
  begin
     id 28
     name rhand
     direction -1 -4.49022e-011 -1.31746e-026   
     length 1.34932   
     axis 8.4065e-015 -90 -90   XYZ
    dof rx rz
    limits (-90.0 90.0)
           (-45.0 45.0)
  end
  begin
     id 29
     name rfingers
     direction -1 -4.49178e-011 -2.63492e-026   
     length 1.08785   
     axis 1.6813e-014 -90 -90   XYZ
    dof rx
    limits (0.0 90.0)
  end
  begin
     id 30
     name rthumb
     direction -0.707107 -6.34713e-011 0.707107   
     length 1.56195   
     axis -90 -45 -2.85299e-015   XYZ
    dof rx rz
    limits (-45.0 45.0)
           (-45.0 45.0)
  end
:hierarchy
  begin
    root lhipjoint rhipjoint lowerback
    lhipjoint lfemur
    lfemur ltibia
    ltibia lfoot
    lfoot ltoes
    rhipjoint rfemur
    rfemur rtibia
    rtibia rfoot
    rfoot rtoes
    lowerback upperback
    upperback thorax
    thorax lowerneck lclavicle rclavicle
    lowerneck upperneck
    upperneck head
    lclavicle lhumerus
    lhumerus lradius
    lradius lwrist
    lwrist lhand lthumb
    lhand lfingers
    rclavicle rhumerus
    rhumerus rradius
    rradius rwrist
    rwrist rhand rthumb
    rhand rfingers
  end

#!OML:ASF X:\für Bonn\!DataBase\2005_08_10_Bjorn_Final\c3d\bjorn.ASF
:FULLY-SPECIFIED
:DEGREES
1
root 1.94148 18.6702 7.23336 -183.26 -14.1256 -177.193
lowerback -1.46174 0.363085 1.13132
upperback 10.3083 -0.301567 -2.23729
thorax 11.8692 -0.278077 -3.16965
lowerneck -0.590561 0.459564 0.979468
upperneck 25.9794 -2.39929 1.68473
head 8.13871 -1.79294 0.0991849
rclavicle -4.37326e-015 -1.43125e-014
rhumerus -30.7094 -15.4858 -87.2203
rradius 26.5512
rwrist 6.61927
rhand -8.84843 10.4065
rfingers 7.12502
rthumb 17.0923 -18.8616
lclavicle -4.37326e-015 -1.43125e-014
lhumerus -22.5331 3.74899 83.9783
lradius 35.4271
lwrist 34.5957
lhand -5.23809 2.0848
lfingers 7.12502
lthumb 20.5646 31.0155
rfemur -22.2039 -3.2095 13.5527
rtibia 43.8921
rfoot -15.9469 2.75974
rtoes -10.1382
lfemur -9.80501 10.9965 -14.4274
ltibia 39.7458
lfoot -23.1089 -12.0449
ltoes -11.4628
2
root 1.92729 18.6798 7.2334 -183.113 -14.2287 -177.131
lowerback -1.53072 0.238848 1.0093
upperback 10.1441 -0.421192 -2.39939
thorax 11.7122 -0.331295 -3.28459
lowerneck -0.540254 0.627278 1.0101
upperneck 26.1303 -2.25961 1.87659
head 8.18333 -1.7225 0.164976
rclavicle -1.82882e-014 3.4191e-014
rhumerus -31.1869 -15.1662 -87.4539
rradius 26.4746
rwrist 6.56517
rhand -8.55732 10.3189
rfingers 7.12502
rthumb 17.3725 -18.9247
lclavicle -1.82882e-014 3.4191e-014
lhumerus -22.6013 4.98811 83.8237
lradius 34.9031
lwrist 35.2707
lhand -6.33227 1.75662
lfingers 7.12502
lthumb 19.5129 30.7975
rfemur -22.4558 -3.53693 13.7937
rtibia 44.2408
rfoot -15.8821 3.28289
rtoes -10.0918
lfemur -9.92451 11.2417 -14.3641
ltibia 39.6447
lfoot -23.1093 -12.4066
ltoes -11.8139
3
root 1.91323 18.6898 7.23258 -182.956 -14.3229 -177.056
lowerback -1.63351 0.114527 0.888445
upperback 9.99761 -0.545848 -2.53139
thorax 11.5965 -0.388637 -3.36934
lowerneck -0.569253 0.786506 0.9861
upperneck 26.3084 -2.12154 2.05074
head 8.25123 -1.65687 0.233648
rclavicle -1.19271e-014 3.02153e-014
rhumerus -31.6201 -14.7403 -87.6829
rradius 26.449
rwrist 6.47279
rhand -8.26809 10.1821
rfingers 7.12502
rthumb 17.6509 -19.0367
lclavicle -1.19271e-014 3.02153e-014
lhumerus -22.6259 6.03883 83.7191
lradius 34.3631
lwrist 35.313
lhand -7.69445 1.38972
lfingers 7.12502
lthumb 18.2028 30.558
rfemur -22.735 -3.87154 14.0575
rtibia 44.6127
rfoot -15.8057 3.92619
rtoes -9.97948
lfemur -10.0664 11.5124 -14.2855
ltibia 39.5598
lfoot -23.1221 -12.7262
ltoes -12.3784
4
root 1.8992 18.6983 7.23175 -182.809 -14.4176 -176.994
lowerback -1.71002 -0.0176619 0.760414
upperback 9.83997 -0.680893 -2.66013
thorax 11.4516 -0.452381 -3.44628
lowerneck -0.493617 0.953631 0.954678
upperneck 26.4132 -1.96145 2.20994
head 8.27442 -1.58425 0.301865
rclavicle 1.98785e-014 -1.43125e-014
rhumerus -32.0858 -14.3167 -87.8901
rradius 26.4696
rwrist 6.3746
rhand -7.92828 10.0171
rfingers 7.12502
rthumb 17.9778 -19.172
lclavicle 1.98785e-014 -1.43125e-014
lhumerus -22.6892 6.94641 83.6097
lradius 33.8096
lwrist 34.6211
lhand -9.15641 1.06087
lfingers 7.12502
lthumb 16.7959 30.3544
rfemur -23.0117 -4.20763 14.3094
rtibia 45.0063
rfoot -15.7033 4.66513
rtoes -9.66704
lfemur -10.2121 11.7726 -14.2261
ltibia 39.4995
lfoot -23.1658 -12.9892
ltoes -13.0421
5
root 1.8864 18.7051 7.22967 -182.658 -14.4952 -176.947
lowerback -1.79741 -0.138736 0.613416
upperback 9.688 -0.801561 -2.78126
thorax 11.3214 -0.511623 -3.50304
lowerneck -0.434344 1.11722 0.891003
upperneck 26.5174 -1.80638 2.38784
head 8.30019 -1.51464 0.381622
rclavicle -1.70955e-014 9.54166e-015
rhumerus -32.5302 -13.8853 -88.0787
rradius 26.4938
rwrist 6.32114
rhand -7.59211 9.82133
rfingers 7.12502
rthumb 18.3013 -19.3377
lclavicle -1.70955e-014 9.54166e-015
lhumerus -22.7474 7.69374 83.5032
lradius 33.2397
lwrist 33.2798
lhand -10.7103 0.772174
lfingers 7.12502
lthumb 15.2995 30.1863
rfemur -23.3031 -4.49129 14.5545
rtibia 45.4241
rfoot -15.5774 5.42692
rtoes -9.32415
lfemur -10.3711 12.129 -14.1643
ltibia 39.4562
lfoot -23.1561 -13.3474
ltoes -13.5157
6
root 1.8735 18.7107 7.22771 -182.517 -14.5716 -176.885
lowerback -1.87941 -0.264531 0.492739
upperback 9.53375 -0.931514 -2.89628
thorax 11.1853 -0.573417 -3.56852
lowerneck -0.351887 1.28294 0.840562
upperneck 26.6296 -1.64455 2.52666
head 8.32372 -1.44571 0.446487
rclavicle -1.94809e-014 4.29375e-014
rhumerus -32.98 -13.4302 -88.2688
rradius 26.5549
rwrist 6.25822
rhand -7.24755 9.55657
rfingers 7.12502
rthumb 18.6327 -19.5711
lclavicle -1.94809e-014 4.29375e-014
lhumerus -22.8205 8.29639 83.3965
lradius 32.6828
lwrist 31.5125
lhand -12.3579 0.617776
lfingers 7.12502
lthumb 13.7121 30.146
rfemur -23.5903 -4.78211 14.8206
rtibia 45.8621
rfoot -15.4461 6.24431
rtoes -9.28933
lfemur -10.5341 12.4763 -14.0883
ltibia 39.4387
lfoot -23.1344 -13.753
ltoes -13.8779
7
root 1.86124 18.7144 7.22526 -182.39 -14.6295 -176.853
lowerback -1.9475 -0.374984 0.356827
upperback 9.3965 -1.04305 -3.02879
thorax 11.062 -0.628401 -3.64282
lowerneck -0.270741 1.43967 0.796178
upperneck 26.7024 -1.49742 2.70656
head 8.33407 -1.37773 0.523549
rclavicle 6.75868e-015 3.65764e-014
rhumerus -33.3868 -13.0136 -88.4672
rradius 26.643
rwrist 6.19281
rhand -6.82668 9.23314
rfingers 7.12502
rthumb 19.0375 -19.8552
lclavicle 6.75868e-015 3.65764e-014
lhumerus -22.8477 8.80975 83.2836
lradius 32.1026
lwrist 29.2287
lhand -14.1384 0.656633
lfingers 7.12502
lthumb 11.9956 30.2929
rfemur -23.8652 -5.04342 15.0621
rtibia 46.3222
rfoot -15.3098 7.02756
rtoes -9.70577
lfemur -10.6798 12.8766 -14.0345
ltibia 39.4411
lfoot -23.0867 -14.2171
ltoes -14.0403
8
root 1.84985 18.7166 7.22209 -182.273 -14.6726 -176.807
lowerback -2.01214 -0.481894 0.234847
upperback 9.2643 -1.1531 -3.14954
thorax 10.9429 -0.682368 -3.712
lowerneck -0.177043 1.58923 0.760368
upperneck 26.7622 -1.3455 2.83257
head 8.33675 -1.31101 0.581518
rclavicle 2.14687e-014 3.65764e-014
rhumerus -33.7641 -12.6361 -88.6355
rradius 26.7259
rwrist 6.16848
rhand -6.44581 8.97028
rfingers 7.12502
rthumb 19.4037 -20.0816
lclavicle 2.14687e-014 3.65764e-014
lhumerus -22.8851 9.20402 83.1915
lradius 31.5561
lwrist 26.5917
lhand -16.0246 0.9101
lfingers 7.12502
lthumb 10.1765 30.644
rfemur -24.1348 -5.24813 15.3211
rtibia 46.7988
rfoot -15.1963 7.77022
rtoes -10.3673
lfemur -10.8286 13.3071 -13.9545
ltibia 39.4635
lfoot -23.0373 -14.7299
ltoes -14.221
9
root 1.83883 18.7165 7.21871 -182.191 -14.7168 -176.79
lowerback -2.05259 -0.581268 0.104664
upperback 9.1649 -1.25833 -3.2848
thorax 10.8471 -0.736306 -3.79279
lowerneck -0.112012 1.73672 0.747507
upperneck 26.7986 -1.18952 2.95767
head 8.33625 -1.23744 0.635724
rclavicle 3.97569e-016 -2.38542e-014
rhumerus -34.0743 -12.2913 -88.8136
rradius 26.7881
rwrist 6.16623
rhand -6.21239 8.92491
rfingers 7.12502
rthumb 19.6282 -20.1042
lclavicle 3.97569e-016 -2.38542e-014
lhumerus -22.8764 9.46571 83.0938
lradius 31.0275
lwrist 23.7147
lhand -17.8568 1.40603
lfingers 7.12502
lthumb 8.40853 31.2187
rfemur -24.3598 -5.44375 15.5472
rtibia 47.2897
rfoot -15.0843 8.46702
rtoes -10.8624
lfemur -10.9388 13.7282 -13.9009
ltibia 39.5017
lfoot -22.9874 -15.1994
ltoes -14.4545
10
root 1.82939 18.7156 7.21491 -182.133 -14.7468 -176.788
lowerback -2.05984 -0.67562 -0.0622214
upperback 9.07936 -1.35895 -3.40981
thorax 10.7483 -0.79322 -3.84074
lowerneck -0.0956817 1.86603 0.74484
upperneck 26.8565 -1.04591 3.02599
head 8.35162 -1.17203 0.66809
rclavicle 4.49253e-014 6.52014e-014
rhumerus -34.3662 -12.0028 -88.9409
rradius 26.8888
rwrist 6.14779
rhand -5.89942 8.83787
rfingers 7.12502
rthumb 19.929 -20.1603
lclavicle 4.49253e-014 6.52014e-014
lhumerus -22.8708 9.69478 83.0138
lradius 30.5153
lwrist 20.5622
lhand -19.6393 2.12683
lfingers 7.12502
lthumb 6.688 32.0012
rfemur -24.5567 -5.56038 15.7624
rtibia 47.7954
rfoot -15.0059 9.03754
rtoes -11.4013
lfemur -11.014 14.1023 -13.8594
ltibia 39.5476
lfoot -22.9557 -15.6591
ltoes -14.5387
11
root 1.81999 18.7123 7.21026 -182.119 -14.7717 -176.788
lowerback -2.03984 -0.771366 -0.225254
upperback 9.01977 -1.46725 -3.53615
thorax 10.6622 -0.855196 -3.89346
lowerneck -0.106926 1.99982 0.754049
upperneck 26.9196 -0.889729 3.07108
head 8.37344 -1.1004 0.691531
rclavicle 3.73715e-014 -1.43125e-014
rhumerus -34.6298 -11.6781 -89.0703
rradius 27.0225
rwrist 6.08757
rhand -5.57153 8.75212
rfingers 7.12502
rthumb 20.2442 -20.2129
lclavicle 3.73715e-014 -1.43125e-014
lhumerus -22.8588 9.8027 82.9316
lradius 30.0412
lwrist 17.3615
lhand -21.3231 2.98002
lfingers 7.12502
lthumb 5.06242 32.8995
rfemur -24.7027 -5.62842 15.9741
rtibia 48.3084
rfoot -14.969 9.50834
rtoes -12.0033
lfemur -11.0438 14.3866 -13.8238
ltibia 39.6032
lfoot -22.9627 -15.9772
ltoes -14.7539
12
root 1.81198 18.7081 7.20462 -182.115 -14.7816 -176.802
lowerback -2.0032 -0.854362 -0.404405
upperback 8.96524 -1.55967 -3.66291
thorax 10.5735 -0.911637 -3.93527
lowerneck -0.160916 2.12027 0.775149
upperneck 27.0086 -0.749709 3.09485
head 8.41222 -1.03617 0.704637
rclavicle -3.97569e-015 -4.92986e-014
rhumerus -34.8901 -11.4368 -89.1482
rradius 27.1738
rwrist 6.03498
rhand -5.17262 8.66117
rfingers 7.12502
rthumb 20.6276 -20.2628
lclavicle -3.97569e-015 -4.92986e-014
lhumerus -22.8199 9.7982 82.8669
lradius 29.5469
lwrist 14.1342
lhand -22.8656 3.92925
lfingers 7.12502
lthumb 3.5729 33.879
rfemur -24.8351 -5.6574 16.1704
rtibia 48.8292
rfoot -14.9346 9.90204
rtoes -12.6635
lfemur -11.0478 14.5359 -13.8188
ltibia 39.6633
lfoot -22.9624 -16.1762
ltoes -14.7025
